<?xml version="1.0" encoding="iso-8859-1"?>
<!-- Generator: Adobe Illustrator 19.0.0, SVG Export Plug-In . SVG Version: 6.00 Build 0)  -->
<svg version="1.1" id="Capa_1" xmlns="http://www.w3.org/2000/svg" xmlns:xlink="http://www.w3.org/1999/xlink" x="0px" y="0px"
	 viewBox="0 0 489.6 489.6" style="enable-background:new 0 0 489.6 489.6;" xml:space="preserve">
<g>
	<g>
		<g>
			<path d="M0,363V141.7c0-17.4,14.1-31.5,31.5-31.5h165.6c-1.9,9-2.9,18.2-2.9,27.7c0,5.1,0.4,10.2,1,15.3H43v198h304.6v-65.8
				c3.6,0.2,7.1,0.3,10.7,0.3c11.1,0,21.8-1,32.3-2.9V363c0,17.4-14.1,31.5-31.5,31.5H230.6v35.2h25.1c4.2,0,7.6,3.4,7.6,7.6v21.9
				c0,4.2-3.4,7.6-7.6,7.6H134.9c-4.2,0-7.6-3.4-7.6-7.6v-21.9c0-4.2,3.4-7.6,7.6-7.6H160v-35.2H31.6C14.1,394.6,0,380.4,0,363z
				 M489.6,137.9c0,63.6-58.8,115.1-131.3,115.1c-26.3,0-50.8-6.8-71.3-18.5c-18.5,11.1-38.5,10.7-50.2,9.1
				c-3.3-0.5-4.2-4.7-1.4-6.6c11.2-7.4,17.4-17.7,20.8-26.8C238,190.4,227,165.3,227,137.9c0-63.6,58.8-115.1,131.3-115.1
				S489.6,74.3,489.6,137.9z M377.4,131.6c-5.4-2.7-11.2-4.9-16.6-7.2c-3.1-1.3-6.3-2.7-9-4.9c-5.4-4.5-4.5-11.2,1.8-13.9
				c1.8-0.4,3.6-0.9,5.4-0.9c7.2-0.4,13.9,0.9,20.7,4c3.1,1.8,4.5,1.3,5.4-2.2c0.9-3.6,2.2-7.2,3.1-10.8c0.4-2.2-0.4-4-2.7-4.9
				c-4-1.8-8.5-3.1-13-4c-5.8-0.9-5.8-0.9-5.8-6.7c0-8.5,0-8.5-8.5-8.5c-1.3,0-2.2,0-3.6,0c-3.6,0.4-4.5,0.9-4.5,4.9
				c0,1.8,0,3.6,0,5.4c0,4.9,0,4.9-4.9,6.7c-12.1,4.5-19.8,13-20.7,26.1c-0.5,11.7,5.4,19.3,15.3,25.2c5.8,3.6,12.6,5.8,18.9,8.5
				c2.2,0.9,4.5,2.2,6.7,4c6.3,4.9,4.9,13-2.2,16.2c-4,1.8-8.1,2.2-12.1,1.8c-6.3-0.9-12.6-2.2-18.4-5.4c-3.1-1.8-4-1.3-5.4,2.2
				c-0.9,3.1-1.8,6.3-2.7,9.4c-1.3,4-0.9,5.4,3.1,7.2c5.4,2.7,10.8,4,16.6,4.9c4.5,0.4,4.5,0.9,4.5,5.4c0,2.2,0,4,0,6.3
				c0,2.2,1.3,4,4,4c3.1,0,6.3,0,9.4,0c2.7,0,4-1.3,4-4s0-5.8,0-8.5s1.3-4,4-4.9c6.3-1.8,11.7-5.4,16.2-10.3
				C398,162.1,393.5,141,377.4,131.6z"/>
		</g>
	</g>
</g>
<g>
</g>
<g>
</g>
<g>
</g>
<g>
</g>
<g>
</g>
<g>
</g>
<g>
</g>
<g>
</g>
<g>
</g>
<g>
</g>
<g>
</g>
<g>
</g>
<g>
</g>
<g>
</g>
<g>
</g>
</svg>
